<?xml version="1.0" standalone="no"?>
<!DOCTYPE svg PUBLIC "-//W3C//DTD SVG 20010904//EN"
 "http://www.w3.org/TR/2001/REC-SVG-20010904/DTD/svg10.dtd">
<svg version="1.0" xmlns="http://www.w3.org/2000/svg"
 width="1266.000000pt" height="1280.000000pt" viewBox="0 0 1266.000000 1280.000000"
 preserveAspectRatio="xMidYMid meet">
<metadata>
Created by potrace 1.15, written by Peter Selinger 2001-2017
</metadata>
<g transform="translate(0.000000,1280.000000) scale(0.100000,-0.100000)"
fill="#000000" stroke="none">
<path d="M11315 12756 c-49 -23 -135 -71 -190 -106 -128 -81 -170 -100 -222
-100 -37 0 -43 -3 -43 -22 0 -11 12 -36 26 -55 l26 -34 -20 -37 c-130 -251
-174 -368 -212 -552 -56 -274 -43 -641 36 -1040 49 -245 108 -465 234 -865
155 -492 280 -941 320 -1145 27 -140 60 -448 60 -559 0 -164 -39 -366 -92
-478 -58 -124 -180 -224 -291 -239 -37 -5 -45 -9 -36 -20 6 -7 24 -16 40 -19
16 -4 31 -11 34 -15 21 -34 -137 -189 -247 -243 -98 -48 -178 -67 -282 -67
-98 0 -163 20 -265 82 -104 63 -212 161 -467 424 -233 241 -541 530 -604 568
-31 18 -32 18 -27 0 3 -11 9 -36 13 -56 8 -49 -5 -49 -65 1 -75 62 -168 118
-250 150 -134 51 -214 63 -481 70 l-246 6 -49 32 c-113 72 -134 77 -310 75
-182 -2 -284 11 -480 63 -286 75 -334 71 -821 -70 -269 -78 -373 -100 -598
-126 -261 -31 -480 -36 -616 -14 -61 10 -113 15 -117 12 -3 -4 6 -22 21 -41
l27 -35 -23 -5 c-13 -3 -61 -8 -106 -11 -113 -9 -157 -26 -219 -87 -50 -49
-54 -51 -140 -64 -60 -10 -108 -25 -153 -48 -304 -157 -331 -166 -471 -166
-48 0 -120 7 -160 15 -40 9 -74 13 -78 10 -3 -3 0 -20 7 -37 6 -18 10 -34 7
-36 -2 -3 -24 0 -47 7 -24 6 -103 16 -176 23 -163 15 -350 1 -521 -40 l-114
-26 51 -23 c53 -23 76 -50 66 -77 -3 -8 -51 -38 -105 -66 -252 -129 -515 -383
-727 -703 -110 -166 -208 -325 -217 -355 -6 -21 -5 -22 34 -16 36 6 41 4 41
-12 0 -11 -15 -45 -34 -76 -46 -75 -76 -161 -127 -359 -78 -307 -137 -444
-243 -569 -38 -44 -51 -67 -43 -72 7 -4 40 -8 75 -8 37 0 62 -4 62 -11 0 -6
-12 -26 -27 -45 -32 -43 -24 -53 48 -60 108 -11 103 -6 95 -82 -4 -37 -11
-128 -15 -202 -5 -74 -16 -164 -26 -200 -22 -85 -75 -190 -136 -269 -42 -54
-57 -81 -46 -81 1 0 29 -5 62 -10 96 -16 294 16 445 71 102 38 248 117 355
193 59 42 121 78 138 80 18 3 88 7 157 10 69 2 163 12 208 21 180 35 385 122
507 216 33 25 70 51 81 57 25 13 31 8 58 -46 21 -40 38 -32 57 26 30 93 97
200 141 223 25 14 38 3 98 -86 27 -38 73 -95 104 -125 31 -30 56 -63 56 -74 0
-12 -20 -61 -45 -111 -40 -81 -81 -202 -71 -212 2 -3 27 16 55 41 52 46 81 58
81 33 0 -8 -10 -49 -21 -93 -26 -97 -32 -275 -10 -313 l14 -25 36 41 c87 100
306 168 606 188 50 4 149 13 220 21 292 34 285 35 368 -56 66 -72 122 -115
170 -130 20 -6 37 -15 37 -19 0 -12 -22 -35 -75 -77 -27 -21 -151 -133 -275
-248 -412 -383 -466 -414 -813 -477 -92 -16 -196 -39 -230 -49 -189 -59 -347
-214 -552 -540 -43 -69 -104 -159 -136 -202 -144 -189 -433 -469 -829 -803
-445 -376 -630 -564 -795 -810 -72 -108 -158 -272 -205 -390 -67 -171 -103
-205 -216 -205 -38 0 -94 7 -124 15 -74 20 -244 20 -301 0 -27 -9 -60 -33 -85
-60 -60 -65 -104 -60 -245 28 -156 97 -266 137 -427 157 -163 21 -252 -13
-252 -95 0 -46 28 -83 118 -154 86 -69 149 -143 349 -406 56 -74 78 -95 127
-120 57 -29 64 -30 185 -29 69 0 151 6 181 14 30 7 161 40 290 72 l235 60 202
7 c191 7 204 9 257 35 75 37 136 107 230 267 230 392 287 481 394 626 289 388
775 919 1016 1111 113 89 163 116 356 187 199 74 317 130 432 207 103 68 259
219 298 288 40 70 155 185 218 218 72 37 145 61 352 112 109 27 204 58 280 92
248 109 296 126 456 158 88 17 212 43 276 57 65 15 121 24 124 20 4 -3 15 -50
26 -104 14 -73 21 -159 25 -331 6 -265 -3 -385 -47 -605 -50 -247 -105 -393
-222 -592 -59 -98 -74 -167 -58 -256 23 -126 61 -177 174 -232 90 -44 171 -52
322 -32 186 25 324 30 729 29 385 -1 529 -11 812 -59 263 -45 957 -213 1067
-259 19 -8 53 -31 77 -53 86 -77 143 -194 210 -432 33 -120 45 -141 100 -181
82 -59 246 -82 285 -39 28 31 21 87 -25 185 -46 98 -52 147 -21 164 48 26 94
-13 142 -118 20 -42 49 -107 66 -143 35 -78 90 -142 146 -172 35 -18 56 -21
136 -20 73 2 110 -3 159 -19 53 -17 91 -21 215 -22 144 -1 154 0 208 26 79 37
105 92 77 165 -20 53 -69 90 -198 149 -329 150 -385 208 -625 644 -168 305
-312 444 -496 480 -51 10 -149 15 -740 40 -248 10 -589 34 -690 49 -36 6 -94
13 -130 16 -164 16 -584 92 -713 130 -145 42 -319 139 -371 208 -32 42 -53
102 -67 187 -22 144 48 315 260 640 126 191 195 320 231 428 31 96 60 282 60
392 0 123 11 141 68 110 20 -11 94 -62 165 -113 70 -51 160 -110 200 -131 71
-38 117 -72 117 -87 0 -4 -14 -16 -32 -27 l-32 -21 29 -11 c108 -41 305 -52
707 -39 186 6 345 9 353 5 8 -3 15 -15 15 -27 0 -20 3 -21 54 -15 110 13 266
81 426 187 89 58 99 63 170 69 41 4 93 15 114 25 90 43 194 163 428 496 73
104 125 159 151 159 3 0 3 -27 0 -60 -3 -34 -2 -60 4 -60 23 0 140 145 212
263 117 191 171 333 276 727 100 375 106 395 130 395 15 0 22 -10 29 -40 13
-53 12 -52 42 -24 39 36 103 133 154 234 25 50 50 90 55 90 6 0 11 -17 13 -37
2 -21 7 -38 12 -38 5 0 27 21 50 48 64 73 142 245 228 502 43 129 93 267 109
305 112 255 138 323 174 439 87 289 119 519 126 901 7 388 -24 730 -93 1040
-42 190 -151 527 -228 709 -132 308 -223 570 -266 765 -68 310 -50 733 40 911
33 65 66 97 137 135 63 33 98 67 173 165 127 165 182 200 523 329 228 87 327
146 327 196 0 46 -39 58 -230 75 -66 5 -149 21 -225 43 -173 50 -173 50 -195
102 -23 54 -98 138 -159 177 -56 35 -72 36 -40 1 24 -26 23 -26 -13 3 -21 16
-42 41 -47 56 -9 26 -14 28 -60 28 -50 0 -101 16 -101 32 0 4 -42 8 -92 7 -88
0 -98 -3 -183 -43z m550 -126 c10 -11 16 -20 13 -20 -3 0 -13 9 -23 20 -10 11
-16 20 -13 20 3 0 13 -9 23 -20z"/>
</g>
</svg>
